<svg width="20" height="20" viewBox="0 0 20 20" fill="none" xmlns="http://www.w3.org/2000/svg">
<path d="M17.7778 0H14.7778H5.22222H2.22222C1.63285 0 1.06762 0.231305 0.650874 0.643032C0.234126 1.05476 0 1.61318 0 2.19545V5.1593V14.7095V17.5636C0 18.1459 0.234126 18.7043 0.650874 19.116C1.06762 19.5277 1.63285 19.759 2.22222 19.759H5.22222H14.8889H17.7778C18.3671 19.759 18.9324 19.5277 19.3491 19.116C19.7659 18.7043 20 18.1459 20 17.5636V14.5997V5.1593V2.19545C20 1.61318 19.7659 1.05476 19.3491 0.643032C18.9324 0.231305 18.3671 0 17.7778 0ZM14 15.3681L10 11.4163L6 15.3681L4.44444 13.8313L8.44445 9.87952L4.44444 5.92771L6 4.3909L10 8.3427L14 4.3909L15.5556 5.92771L11.5556 9.87952L15.5556 13.8313L14 15.3681Z" fill="#860000"/>
</svg>
