<svg width="175" height="175" viewBox="0 0 175 175" fill="none" xmlns="http://www.w3.org/2000/svg">
<path d="M65.625 71.0938C65.625 65.0542 60.7271 60.1562 54.6875 60.1562H49.2188C37.1362 60.1562 27.3438 69.9487 27.3438 82.0312V98.4375C27.3438 110.52 37.1362 120.312 49.2188 120.312H54.6875C60.7271 120.312 65.625 115.415 65.625 109.375V71.0938ZM125.781 120.312C137.864 120.312 147.656 110.52 147.656 98.4375V82.0312C147.656 69.9487 137.864 60.1562 125.781 60.1562H120.312C114.273 60.1562 109.375 65.0542 109.375 71.0938V109.375C109.375 115.415 114.273 120.312 120.312 120.312H125.781ZM87.5 0C38.6846 0 1.56543 40.6157 0 87.5V92.9688C0 95.9902 2.44727 98.4375 5.46875 98.4375H10.9375C13.959 98.4375 16.4062 95.9902 16.4062 92.9688V87.5C16.4062 48.2993 48.2993 16.4062 87.5 16.4062C126.701 16.4062 158.594 48.2993 158.594 87.5H158.553C158.58 88.3306 158.594 144.143 158.594 144.143C158.594 152.124 152.124 158.594 144.143 158.594H109.375C109.375 149.533 102.03 142.188 92.9688 142.188H82.0312C72.9702 142.188 65.625 149.533 65.625 158.594C65.625 167.655 72.9702 175 82.0312 175H144.143C161.185 175 175 161.185 175 144.143V87.5C173.435 40.6157 136.315 0 87.5 0Z" fill="white"/>
</svg>
